<svg width="21" height="24" viewBox="0 0 21 24" fill="none" xmlns="http://www.w3.org/2000/svg">
<path d="M4.49185 9.00905V11.0661C4.49185 14.6601 6.87297 17.0903 10.5262 17.0903C11.7065 17.0903 12.7532 16.838 13.6273 16.3725L14.6268 17.3706C13.6611 17.9409 12.518 18.2954 11.2425 18.392V21.0822H15.2735C15.6755 21.0822 15.9898 21.3966 15.9898 21.7891C15.9898 22.1868 15.6755 22.5054 15.2735 22.5054H5.77891C5.39058 22.5054 5.07197 22.1868 5.07197 21.7891C5.07197 21.3966 5.39058 21.0822 5.77891 21.0822H9.81929V18.392C5.77865 18.0869 3.0686 15.2047 3.0686 11.1223V9.00905C3.0686 8.60716 3.38301 8.29274 3.78491 8.29274C4.17324 8.29274 4.49185 8.60716 4.49185 9.00905ZM11.7353 14.4833C11.3683 14.6133 10.9626 14.6805 10.5262 14.6805C8.43361 14.6805 7.04021 13.1197 7.04021 10.896V9.79477L11.7353 14.4833ZM17.9839 9.00905V11.1223C17.9839 12.4185 17.7107 13.5937 17.2068 14.6024L16.1336 13.53C16.4154 12.7954 16.5649 11.9674 16.5649 11.0661V9.00905C16.5649 8.60716 16.8792 8.29274 17.2769 8.29274C17.6694 8.29274 17.9839 8.60716 17.9839 9.00905ZM14.0216 3.78863V10.896C14.0216 11.0662 14.0135 11.2325 13.9948 11.393L7.04021 4.44427V3.78863C7.04021 1.56079 8.43361 0 10.5262 0C12.6282 0 14.0216 1.56079 14.0216 3.78863Z" fill="white"/>
<path d="M18.3263 19.4164C18.6127 19.7026 19.0748 19.7026 19.3518 19.4164C19.6288 19.1301 19.634 18.6771 19.3518 18.395L3.09502 2.15172C2.82226 1.87895 2.35065 1.86119 2.06011 2.15172C1.78734 2.42449 1.78734 2.90967 2.06011 3.18243L18.3263 19.4164Z" fill="white"/>
</svg>
