<svg width="16" height="24" viewBox="0 0 16 24" fill="none" xmlns="http://www.w3.org/2000/svg">
<path d="M0.111694 11.1223C0.111694 15.2047 2.82594 18.0869 6.85302 18.392V21.0822H2.822C2.42432 21.0822 2.1057 21.3966 2.1057 21.7891C2.1057 22.1868 2.42432 22.5054 2.822 22.5054H12.3167C12.7092 22.5054 13.0236 22.1868 13.0236 21.7891C13.0236 21.3966 12.7092 21.0822 12.3167 21.0822H8.27627V18.392C12.3169 18.0869 15.0311 15.2047 15.0311 11.1223V9.00905C15.0311 8.60716 14.7126 8.29274 14.3149 8.29274C13.9223 8.29274 13.6079 8.60716 13.6079 9.00905V11.0661C13.6079 14.6601 11.2361 17.0903 7.56933 17.0903C3.9067 17.0903 1.53494 14.6601 1.53494 11.0661V9.00905C1.53494 8.60716 1.21633 8.29274 0.81864 8.29274C0.430308 8.29274 0.111694 8.60716 0.111694 9.00905V11.1223ZM7.56933 14.6805C9.66194 14.6805 11.0595 13.1197 11.0595 10.896V3.78863C11.0595 1.56079 9.66194 0 7.56933 0C5.47155 0 4.07394 1.56079 4.07394 3.78863V10.896C4.07394 13.1197 5.47155 14.6805 7.56933 14.6805Z" fill="white"/>
</svg>
