<svg width="31" height="24" viewBox="0 0 31 24" fill="none" xmlns="http://www.w3.org/2000/svg">
<path d="M3.77079 20.0766H27.9637C29.8351 20.0766 30.9597 18.9364 30.9597 17.0699V2.99589C30.9597 1.12934 29.8351 0 27.9637 0H3.77079C1.8994 0 0.774902 1.12934 0.774902 2.99589V17.0699C0.774902 18.9364 1.8994 20.0766 3.77079 20.0766ZM3.80686 18.3303C2.99501 18.3303 2.51044 17.8613 2.51044 17.0388V3.02712C2.51044 2.21526 2.99501 1.73554 3.80686 1.73554H27.9277C28.7395 1.73554 29.2242 2.21526 29.2242 3.02712V17.0388C29.2242 17.8613 28.7395 18.3303 27.9277 18.3303H3.80686ZM9.78664 24H21.9479C22.4369 24 22.8206 23.6164 22.8206 23.1321C22.8206 22.6431 22.4369 22.2536 21.9479 22.2536H9.78664C9.29754 22.2536 8.91402 22.6431 8.91402 23.1321C8.91402 23.6164 9.29754 24 9.78664 24Z" fill="white"/>
<path d="M19.7282 12C19.9547 12 20.1056 11.9233 20.2564 11.7724L25.0264 6.98824L26.7722 5.12559L26.5927 8.2865V10.085C26.5927 10.4688 26.8749 10.7892 27.2719 10.7892C27.6787 10.7892 28 10.4885 28 10.085V3.77733C28 3.25798 27.7475 3 27.2237 3H20.8894C20.4772 3 20.1765 3.33019 20.1765 3.74243C20.1765 4.1252 20.4924 4.40624 20.8894 4.40624H22.7233L25.9039 4.23331L24.0172 5.96917L19.2417 10.7632C19.0821 10.9185 19 11.0978 19 11.311C19 11.7036 19.316 12 19.7282 12Z" fill="white"/>
</svg>
