<svg width="31" height="24" viewBox="0 0 31 24" fill="none" xmlns="http://www.w3.org/2000/svg">
<path d="M3.7302 20.0766H27.9231C29.7945 20.0766 30.9191 18.9364 30.9191 17.0699V2.99589C30.9191 1.12934 29.7945 0 27.9231 0H3.7302C1.85881 0 0.734314 1.12934 0.734314 2.99589V17.0699C0.734314 18.9364 1.85881 20.0766 3.7302 20.0766ZM3.76628 18.3303C2.95442 18.3303 2.46985 17.8613 2.46985 17.0388V3.02712C2.46985 2.21526 2.95442 1.73554 3.76628 1.73554H27.8871C28.6989 1.73554 29.1836 2.21526 29.1836 3.02712V17.0388C29.1836 17.8613 28.6989 18.3303 27.8871 18.3303H3.76628ZM9.74605 24H21.9073C22.3964 24 22.78 23.6164 22.78 23.1321C22.78 22.6431 22.3964 22.2536 21.9073 22.2536H9.74605C9.25695 22.2536 8.87343 22.6431 8.87343 23.1321C8.87343 23.6164 9.25695 24 9.74605 24Z" fill="white"/>
<path d="M10.3646 15.0542C10.8578 15.5473 11.5715 15.5416 12.0898 15.0233L15.6893 11.4238L19.3094 15.0439C19.8174 15.5519 20.5312 15.5576 21.0243 15.0645C21.5472 14.5416 21.5461 13.8324 21.0335 13.3198L17.4134 9.69972L21.0335 6.07971C21.5415 5.57169 21.5472 4.8579 21.054 4.36476C20.5414 3.85213 19.8221 3.84288 19.3093 4.35559L15.6893 7.97561L12.0795 4.36583C11.5566 3.84293 10.8475 3.84188 10.3246 4.36477C9.83149 4.8579 9.83714 5.57165 10.3554 6.08994L13.9652 9.69972L10.3657 13.2992C9.8428 13.8221 9.85202 14.5415 10.3646 15.0542Z" fill="white"/>
</svg>
