<svg width="25" height="24" viewBox="0 0 25 24" fill="none" xmlns="http://www.w3.org/2000/svg">
<g clip-path="url(#clip0_10600_4282)">
<path d="M11.8338 1.05832C12.1315 1.05832 12.3653 0.829999 12.3653 0.527007C12.3653 0.22832 12.1315 0 11.8338 0C11.5456 0 11.3161 0.22832 11.3161 0.527007C11.3161 0.829999 11.5456 1.05832 11.8338 1.05832ZM13.7986 1.23875C14.0964 1.23875 14.3206 1.01043 14.3206 0.707442C14.3206 0.408753 14.0964 0.180435 13.7986 0.180435C13.5009 0.180435 13.2766 0.408753 13.2766 0.707442C13.2766 1.01043 13.5009 1.23875 13.7986 1.23875ZM15.6952 1.75229C15.9929 1.75229 16.2173 1.52398 16.2173 1.22099C16.2173 0.922297 15.9929 0.693979 15.6952 0.693979C15.3976 0.693979 15.1732 0.922297 15.1732 1.22099C15.1732 1.52398 15.3976 1.75229 15.6952 1.75229ZM17.4826 2.61381C17.771 2.61381 18.0047 2.38548 18.0047 2.08249C18.0047 1.7838 17.771 1.55548 17.4826 1.55548C17.1849 1.55548 16.9513 1.7838 16.9513 2.08249C16.9513 2.38548 17.1849 2.61381 17.4826 2.61381ZM19.0929 3.7572C19.3812 3.7572 19.6149 3.51931 19.6149 3.22589C19.6149 2.9229 19.3812 2.68931 19.0929 2.68931C18.7952 2.68931 18.5614 2.9229 18.5614 3.22589C18.5614 3.51931 18.7952 3.7572 19.0929 3.7572ZM20.4797 5.17389C20.7774 5.17389 21.0111 4.93599 21.0111 4.64258C21.0111 4.33958 20.7774 4.106 20.4797 4.106C20.1913 4.106 19.9577 4.33958 19.9577 4.64258C19.9577 4.93599 20.1913 5.17389 20.4797 5.17389ZM21.6083 6.82223C21.906 6.82223 22.1398 6.58433 22.1398 6.28134C22.1398 5.98792 21.906 5.75002 21.6083 5.75002C21.3201 5.75002 21.0863 5.98792 21.0863 6.28134C21.0863 6.58433 21.3201 6.82223 21.6083 6.82223ZM22.436 8.63185C22.7336 8.63185 22.9674 8.39395 22.9674 8.09096C22.9674 7.79754 22.7336 7.55964 22.436 7.55964C22.1477 7.55964 21.9139 7.79754 21.9139 8.09096C21.9139 8.39395 22.1477 8.63185 22.436 8.63185ZM22.9406 10.5482C23.2382 10.5482 23.472 10.3199 23.472 10.0169C23.472 9.71389 23.2382 9.48558 22.9406 9.48558C22.6523 9.48558 22.4185 9.71389 22.4185 10.0169C22.4185 10.3199 22.6523 10.5482 22.9406 10.5482ZM23.1094 12.5243C23.4071 12.5243 23.6315 12.2961 23.6315 11.993C23.6315 11.6901 23.4071 11.4617 23.1094 11.4617C22.8117 11.4617 22.5874 11.6901 22.5874 11.993C22.5874 12.2961 22.8117 12.5243 23.1094 12.5243ZM22.9406 14.5005C23.2382 14.5005 23.472 14.2723 23.472 13.9693C23.472 13.6662 23.2382 13.438 22.9406 13.438C22.6523 13.438 22.4185 13.6662 22.4185 13.9693C22.4185 14.2723 22.6523 14.5005 22.9406 14.5005ZM22.436 16.4264C22.7336 16.4264 22.9674 16.1886 22.9674 15.8951C22.9674 15.5921 22.7336 15.3543 22.436 15.3543C22.1477 15.3543 21.9139 15.5921 21.9139 15.8951C21.9139 16.1886 22.1477 16.4264 22.436 16.4264ZM21.6083 18.236C21.906 18.236 22.1398 17.9982 22.1398 17.7047C22.1398 17.4018 21.906 17.1639 21.6083 17.1639C21.3201 17.1639 21.0863 17.4018 21.0863 17.7047C21.0863 17.9982 21.3201 18.236 21.6083 18.236ZM20.4797 19.8801C20.7774 19.8801 21.0111 19.6465 21.0111 19.3436C21.0111 19.0501 20.7774 18.8123 20.4797 18.8123C20.1913 18.8123 19.9577 19.0501 19.9577 19.3436C19.9577 19.6465 20.1913 19.8801 20.4797 19.8801ZM19.0929 21.2969C19.3812 21.2969 19.6149 21.0632 19.6149 20.7602C19.6149 20.4668 19.3812 20.2289 19.0929 20.2289C18.7952 20.2289 18.5614 20.4668 18.5614 20.7602C18.5614 21.0632 18.7952 21.2969 19.0929 21.2969ZM17.4826 22.4307C17.771 22.4307 18.0047 22.2023 18.0047 21.9036C18.0047 21.6007 17.771 21.3723 17.4826 21.3723C17.1849 21.3723 16.9513 21.6007 16.9513 21.9036C16.9513 22.2023 17.1849 22.4307 17.4826 22.4307ZM15.6952 23.2921C15.9929 23.2921 16.2173 23.0639 16.2173 22.7652C16.2173 22.4622 15.9929 22.2338 15.6952 22.2338C15.3976 22.2338 15.1732 22.4622 15.1732 22.7652C15.1732 23.0639 15.3976 23.2921 15.6952 23.2921ZM13.7986 23.8056C14.0964 23.8056 14.3206 23.5774 14.3206 23.2787C14.3206 22.9757 14.0964 22.7474 13.7986 22.7474C13.5009 22.7474 13.2766 22.9757 13.2766 23.2787C13.2766 23.5774 13.5009 23.8056 13.7986 23.8056ZM11.8338 23.9861C12.1315 23.9861 12.3653 23.7578 12.3653 23.4591C12.3653 23.1561 12.1315 22.9278 11.8338 22.9278C11.5456 22.9278 11.3161 23.1561 11.3161 23.4591C11.3161 23.7578 11.5456 23.9861 11.8338 23.9861ZM9.86911 23.8056C10.1668 23.8056 10.4006 23.5774 10.4006 23.2787C10.4006 22.9757 10.1668 22.7474 9.86911 22.7474C9.58082 22.7474 9.35129 22.9757 9.35129 23.2787C9.35129 23.5774 9.58082 23.8056 9.86911 23.8056ZM7.98194 23.2921C8.27025 23.2921 8.504 23.0639 8.504 22.7652C8.504 22.4622 8.27025 22.2338 7.98194 22.2338C7.68847 22.2338 7.45472 22.4622 7.45472 22.7652C7.45472 23.0639 7.68847 23.2921 7.98194 23.2921ZM6.19448 22.4307C6.48277 22.4307 6.71652 22.2023 6.71652 21.9036C6.71652 21.6007 6.48277 21.3723 6.19448 21.3723C5.901 21.3723 5.66725 21.6007 5.66725 21.9036C5.66725 22.2023 5.901 22.4307 6.19448 22.4307ZM4.58852 21.2969C4.87259 21.2969 5.10634 21.0632 5.10634 20.7602C5.10634 20.4668 4.87259 20.2289 4.58852 20.2289C4.29081 20.2289 4.06647 20.4668 4.06647 20.7602C4.06647 21.0632 4.29081 21.2969 4.58852 21.2969ZM3.1923 19.8801C3.48579 19.8801 3.71012 19.6465 3.71012 19.3436C3.71012 19.0501 3.48579 18.8123 3.1923 18.8123C2.89459 18.8123 2.67026 19.0501 2.67026 19.3436C2.67026 19.6465 2.89459 19.8801 3.1923 19.8801ZM2.06366 18.236C2.36137 18.236 2.58148 17.9982 2.58148 17.7047C2.58148 17.4018 2.36137 17.1639 2.06366 17.1639C1.77536 17.1639 1.54161 17.4018 1.54161 17.7047C1.54161 17.9982 1.77536 18.236 2.06366 18.236ZM1.236 16.4264C1.53371 16.4264 1.76322 16.1886 1.76322 15.8951C1.76322 15.5921 1.53371 15.3543 1.236 15.3543C0.947697 15.3543 0.71395 15.5921 0.71395 15.8951C0.71395 16.1886 0.947697 16.4264 1.236 16.4264ZM0.731406 14.5005C1.02911 14.5005 1.25864 14.2723 1.25864 13.9693C1.25864 13.6662 1.02911 13.438 0.731406 13.438C0.443108 13.438 0.20936 13.6662 0.20936 13.9693C0.20936 14.2723 0.443108 14.5005 0.731406 14.5005ZM0.562573 12.5243C0.860282 12.5243 1.0898 12.2961 1.0898 11.993C1.0898 11.6901 0.860282 11.4617 0.562573 11.4617C0.274276 11.4617 0.0405273 11.6901 0.0405273 11.993C0.0405273 12.2961 0.274276 12.5243 0.562573 12.5243ZM0.731406 10.5482C1.02911 10.5482 1.25864 10.3199 1.25864 10.0169C1.25864 9.71389 1.02911 9.48558 0.731406 9.48558C0.443108 9.48558 0.20936 9.71389 0.20936 10.0169C0.20936 10.3199 0.443108 10.5482 0.731406 10.5482ZM1.236 8.63185C1.53371 8.63185 1.76322 8.39395 1.76322 8.09096C1.76322 7.79754 1.53371 7.55964 1.236 7.55964C0.947697 7.55964 0.71395 7.79754 0.71395 8.09096C0.71395 8.39395 0.947697 8.63185 1.236 8.63185ZM2.06366 6.82223C2.36137 6.82223 2.58148 6.58433 2.58148 6.28134C2.58148 5.98792 2.36137 5.75002 2.06366 5.75002C1.77536 5.75002 1.54161 5.98792 1.54161 6.28134C1.54161 6.58433 1.77536 6.82223 2.06366 6.82223ZM3.1923 5.17389C3.48579 5.17389 3.71012 4.93599 3.71012 4.64258C3.71012 4.33958 3.48579 4.106 3.1923 4.106C2.89459 4.106 2.67026 4.33958 2.67026 4.64258C2.67026 4.93599 2.89459 5.17389 3.1923 5.17389ZM4.58852 3.7572C4.87259 3.7572 5.10634 3.51931 5.10634 3.22589C5.10634 2.9229 4.87259 2.68931 4.58852 2.68931C4.29081 2.68931 4.06647 2.9229 4.06647 3.22589C4.06647 3.51931 4.29081 3.7572 4.58852 3.7572ZM6.19448 2.61381C6.48277 2.61381 6.71652 2.38548 6.71652 2.08249C6.71652 1.7838 6.48277 1.55548 6.19448 1.55548C5.901 1.55548 5.66725 1.7838 5.66725 2.08249C5.66725 2.38548 5.901 2.61381 6.19448 2.61381ZM7.98194 1.75229C8.27025 1.75229 8.504 1.52398 8.504 1.22099C8.504 0.922297 8.27025 0.693979 7.98194 0.693979C7.68847 0.693979 7.45472 0.922297 7.45472 1.22099C7.45472 1.52398 7.68847 1.75229 7.98194 1.75229ZM9.86911 1.23875C10.1668 1.23875 10.4006 1.01043 10.4006 0.707442C10.4006 0.408753 10.1668 0.180435 9.86911 0.180435C9.58082 0.180435 9.35129 0.408753 9.35129 0.707442C9.35129 1.01043 9.58082 1.23875 9.86911 1.23875Z" fill="white"/>
<path d="M11.8339 20.6955C16.5602 20.6955 20.3843 16.8205 20.3843 11.9932C20.3843 7.20227 16.5455 3.29102 11.8339 3.29102C7.0856 3.29102 3.28345 7.17784 3.28345 11.9932C3.28345 16.8397 7.07619 20.6955 11.8339 20.6955ZM11.8339 19.7103C7.60628 19.7103 4.25144 16.2959 4.25144 11.9932C4.25144 7.71831 7.63356 4.27618 11.8339 4.27618C16.0164 4.27618 19.4163 7.73649 19.4163 11.9932C19.4163 16.2681 16.0343 19.7103 11.8339 19.7103Z" fill="white"/>
<path d="M9.34424 14.9201C9.34424 15.5203 9.75336 15.7156 10.3065 15.3873L15.1872 12.5458C15.6788 12.2514 15.6829 11.77 15.1872 11.4809L10.3065 8.61695C9.75336 8.29814 9.34424 8.48385 9.34424 9.08413V14.9201Z" fill="white"/>
</g>
<defs>
<clipPath id="clip0_10600_4282">
<rect width="24" height="24" fill="white" transform="translate(0.0405273)"/>
</clipPath>
</defs>
</svg>
