<svg width="24" height="24" viewBox="0 0 24 24" fill="none" xmlns="http://www.w3.org/2000/svg">
<g clip-path="url(#clip0_10779_4980)">
<path d="M11.7933 1.05832C12.091 1.05832 12.3248 0.829999 12.3248 0.527007C12.3248 0.22832 12.091 0 11.7933 0C11.505 0 11.2755 0.22832 11.2755 0.527007C11.2755 0.829999 11.505 1.05832 11.7933 1.05832ZM13.7581 1.23875C14.0559 1.23875 14.2801 1.01043 14.2801 0.707442C14.2801 0.408753 14.0559 0.180435 13.7581 0.180435C13.4604 0.180435 13.2361 0.408753 13.2361 0.707442C13.2361 1.01043 13.4604 1.23875 13.7581 1.23875ZM15.6547 1.75229C15.9524 1.75229 16.1768 1.52398 16.1768 1.22099C16.1768 0.922297 15.9524 0.693979 15.6547 0.693979C15.357 0.693979 15.1327 0.922297 15.1327 1.22099C15.1327 1.52398 15.357 1.75229 15.6547 1.75229ZM17.4421 2.61381C17.7305 2.61381 17.9642 2.38548 17.9642 2.08249C17.9642 1.7838 17.7305 1.55548 17.4421 1.55548C17.1444 1.55548 16.9107 1.7838 16.9107 2.08249C16.9107 2.38548 17.1444 2.61381 17.4421 2.61381ZM19.0524 3.7572C19.3406 3.7572 19.5744 3.51931 19.5744 3.22589C19.5744 2.9229 19.3406 2.68931 19.0524 2.68931C18.7547 2.68931 18.5209 2.9229 18.5209 3.22589C18.5209 3.51931 18.7547 3.7572 19.0524 3.7572ZM20.4392 5.17389C20.7369 5.17389 20.9706 4.93599 20.9706 4.64258C20.9706 4.33958 20.7369 4.106 20.4392 4.106C20.1508 4.106 19.9171 4.33958 19.9171 4.64258C19.9171 4.93599 20.1508 5.17389 20.4392 5.17389ZM21.5678 6.82223C21.8655 6.82223 22.0993 6.58433 22.0993 6.28134C22.0993 5.98792 21.8655 5.75002 21.5678 5.75002C21.2795 5.75002 21.0457 5.98792 21.0457 6.28134C21.0457 6.58433 21.2795 6.82223 21.5678 6.82223ZM22.3954 8.63185C22.6931 8.63185 22.9269 8.39395 22.9269 8.09096C22.9269 7.79754 22.6931 7.55964 22.3954 7.55964C22.1072 7.55964 21.8734 7.79754 21.8734 8.09096C21.8734 8.39395 22.1072 8.63185 22.3954 8.63185ZM22.9 10.5482C23.1977 10.5482 23.4315 10.3199 23.4315 10.0169C23.4315 9.71389 23.1977 9.48558 22.9 9.48558C22.6118 9.48558 22.378 9.71389 22.378 10.0169C22.378 10.3199 22.6118 10.5482 22.9 10.5482ZM23.0689 12.5243C23.3666 12.5243 23.5909 12.2961 23.5909 11.993C23.5909 11.6901 23.3666 11.4617 23.0689 11.4617C22.7712 11.4617 22.5468 11.6901 22.5468 11.993C22.5468 12.2961 22.7712 12.5243 23.0689 12.5243ZM22.9 14.5005C23.1977 14.5005 23.4315 14.2723 23.4315 13.9693C23.4315 13.6662 23.1977 13.438 22.9 13.438C22.6118 13.438 22.378 13.6662 22.378 13.9693C22.378 14.2723 22.6118 14.5005 22.9 14.5005ZM22.3954 16.4264C22.6931 16.4264 22.9269 16.1886 22.9269 15.8951C22.9269 15.5921 22.6931 15.3543 22.3954 15.3543C22.1072 15.3543 21.8734 15.5921 21.8734 15.8951C21.8734 16.1886 22.1072 16.4264 22.3954 16.4264ZM21.5678 18.236C21.8655 18.236 22.0993 17.9982 22.0993 17.7047C22.0993 17.4018 21.8655 17.1639 21.5678 17.1639C21.2795 17.1639 21.0457 17.4018 21.0457 17.7047C21.0457 17.9982 21.2795 18.236 21.5678 18.236ZM20.4392 19.8801C20.7369 19.8801 20.9706 19.6465 20.9706 19.3436C20.9706 19.0501 20.7369 18.8123 20.4392 18.8123C20.1508 18.8123 19.9171 19.0501 19.9171 19.3436C19.9171 19.6465 20.1508 19.8801 20.4392 19.8801ZM19.0524 21.2969C19.3406 21.2969 19.5744 21.0632 19.5744 20.7602C19.5744 20.4668 19.3406 20.2289 19.0524 20.2289C18.7547 20.2289 18.5209 20.4668 18.5209 20.7602C18.5209 21.0632 18.7547 21.2969 19.0524 21.2969ZM17.4421 22.4307C17.7305 22.4307 17.9642 22.2023 17.9642 21.9036C17.9642 21.6007 17.7305 21.3723 17.4421 21.3723C17.1444 21.3723 16.9107 21.6007 16.9107 21.9036C16.9107 22.2023 17.1444 22.4307 17.4421 22.4307ZM15.6547 23.2921C15.9524 23.2921 16.1768 23.0639 16.1768 22.7652C16.1768 22.4622 15.9524 22.2338 15.6547 22.2338C15.357 22.2338 15.1327 22.4622 15.1327 22.7652C15.1327 23.0639 15.357 23.2921 15.6547 23.2921ZM13.7581 23.8056C14.0559 23.8056 14.2801 23.5774 14.2801 23.2787C14.2801 22.9757 14.0559 22.7474 13.7581 22.7474C13.4604 22.7474 13.2361 22.9757 13.2361 23.2787C13.2361 23.5774 13.4604 23.8056 13.7581 23.8056ZM11.7933 23.9861C12.091 23.9861 12.3248 23.7578 12.3248 23.4591C12.3248 23.1561 12.091 22.9278 11.7933 22.9278C11.505 22.9278 11.2755 23.1561 11.2755 23.4591C11.2755 23.7578 11.505 23.9861 11.7933 23.9861ZM9.82858 23.8056C10.1263 23.8056 10.36 23.5774 10.36 23.2787C10.36 22.9757 10.1263 22.7474 9.82858 22.7474C9.54029 22.7474 9.31076 22.9757 9.31076 23.2787C9.31076 23.5774 9.54029 23.8056 9.82858 23.8056ZM7.94142 23.2921C8.22972 23.2921 8.46347 23.0639 8.46347 22.7652C8.46347 22.4622 8.22972 22.2338 7.94142 22.2338C7.64795 22.2338 7.4142 22.4622 7.4142 22.7652C7.4142 23.0639 7.64795 23.2921 7.94142 23.2921ZM6.15395 22.4307C6.44224 22.4307 6.67599 22.2023 6.67599 21.9036C6.67599 21.6007 6.44224 21.3723 6.15395 21.3723C5.86047 21.3723 5.62672 21.6007 5.62672 21.9036C5.62672 22.2023 5.86047 22.4307 6.15395 22.4307ZM4.54799 21.2969C4.83206 21.2969 5.06581 21.0632 5.06581 20.7602C5.06581 20.4668 4.83206 20.2289 4.54799 20.2289C4.25029 20.2289 4.02594 20.4668 4.02594 20.7602C4.02594 21.0632 4.25029 21.2969 4.54799 21.2969ZM3.15177 19.8801C3.44526 19.8801 3.66959 19.6465 3.66959 19.3436C3.66959 19.0501 3.44526 18.8123 3.15177 18.8123C2.85407 18.8123 2.62973 19.0501 2.62973 19.3436C2.62973 19.6465 2.85407 19.8801 3.15177 19.8801ZM2.02313 18.236C2.32084 18.236 2.54095 17.9982 2.54095 17.7047C2.54095 17.4018 2.32084 17.1639 2.02313 17.1639C1.73483 17.1639 1.50108 17.4018 1.50108 17.7047C1.50108 17.9982 1.73483 18.236 2.02313 18.236ZM1.19547 16.4264C1.49318 16.4264 1.72269 16.1886 1.72269 15.8951C1.72269 15.5921 1.49318 15.3543 1.19547 15.3543C0.90717 15.3543 0.673423 15.5921 0.673423 15.8951C0.673423 16.1886 0.90717 16.4264 1.19547 16.4264ZM0.690879 14.5005C0.988587 14.5005 1.21811 14.2723 1.21811 13.9693C1.21811 13.6662 0.988587 13.438 0.690879 13.438C0.402581 13.438 0.168833 13.6662 0.168833 13.9693C0.168833 14.2723 0.402581 14.5005 0.690879 14.5005ZM0.522046 12.5243C0.819754 12.5243 1.04927 12.2961 1.04927 11.993C1.04927 11.6901 0.819754 11.4617 0.522046 11.4617C0.233748 11.4617 0 11.6901 0 11.993C0 12.2961 0.233748 12.5243 0.522046 12.5243ZM0.690879 10.5482C0.988587 10.5482 1.21811 10.3199 1.21811 10.0169C1.21811 9.71389 0.988587 9.48558 0.690879 9.48558C0.402581 9.48558 0.168833 9.71389 0.168833 10.0169C0.168833 10.3199 0.402581 10.5482 0.690879 10.5482ZM1.19547 8.63185C1.49318 8.63185 1.72269 8.39395 1.72269 8.09096C1.72269 7.79754 1.49318 7.55964 1.19547 7.55964C0.90717 7.55964 0.673423 7.79754 0.673423 8.09096C0.673423 8.39395 0.90717 8.63185 1.19547 8.63185ZM2.02313 6.82223C2.32084 6.82223 2.54095 6.58433 2.54095 6.28134C2.54095 5.98792 2.32084 5.75002 2.02313 5.75002C1.73483 5.75002 1.50108 5.98792 1.50108 6.28134C1.50108 6.58433 1.73483 6.82223 2.02313 6.82223ZM3.15177 5.17389C3.44526 5.17389 3.66959 4.93599 3.66959 4.64258C3.66959 4.33958 3.44526 4.106 3.15177 4.106C2.85407 4.106 2.62973 4.33958 2.62973 4.64258C2.62973 4.93599 2.85407 5.17389 3.15177 5.17389ZM4.54799 3.7572C4.83206 3.7572 5.06581 3.51931 5.06581 3.22589C5.06581 2.9229 4.83206 2.68931 4.54799 2.68931C4.25029 2.68931 4.02594 2.9229 4.02594 3.22589C4.02594 3.51931 4.25029 3.7572 4.54799 3.7572ZM6.15395 2.61381C6.44224 2.61381 6.67599 2.38548 6.67599 2.08249C6.67599 1.7838 6.44224 1.55548 6.15395 1.55548C5.86047 1.55548 5.62672 1.7838 5.62672 2.08249C5.62672 2.38548 5.86047 2.61381 6.15395 2.61381ZM7.94142 1.75229C8.22972 1.75229 8.46347 1.52398 8.46347 1.22099C8.46347 0.922297 8.22972 0.693979 7.94142 0.693979C7.64795 0.693979 7.4142 0.922297 7.4142 1.22099C7.4142 1.52398 7.64795 1.75229 7.94142 1.75229ZM9.82858 1.23875C10.1263 1.23875 10.36 1.01043 10.36 0.707442C10.36 0.408753 10.1263 0.180435 9.82858 0.180435C9.54029 0.180435 9.31076 0.408753 9.31076 0.707442C9.31076 1.01043 9.54029 1.23875 9.82858 1.23875Z" fill="white"/>
<path d="M11.7934 20.6955C16.5197 20.6955 20.3438 16.8205 20.3438 11.9932C20.3438 7.20227 16.505 3.29102 11.7934 3.29102C7.04507 3.29102 3.24292 7.17784 3.24292 11.9932C3.24292 16.8397 7.03566 20.6955 11.7934 20.6955ZM11.7934 19.7103C7.56575 19.7103 4.21092 16.2959 4.21092 11.9932C4.21092 7.71831 7.59303 4.27618 11.7934 4.27618C15.9758 4.27618 19.3758 7.73649 19.3758 11.9932C19.3758 16.2681 15.9938 19.7103 11.7934 19.7103Z" fill="white"/>
<path d="M11.7933 16.3739C14.1758 16.3739 16.0791 14.4231 16.0791 12.0122C16.0791 9.60562 14.1716 7.65039 11.7933 7.65039C9.42447 7.65039 7.50757 9.60131 7.50757 12.0122C7.50757 14.4326 9.41505 16.3739 11.7933 16.3739ZM11.7933 14.527C10.4297 14.527 9.33173 13.4043 9.33173 12.0122C9.33173 10.6148 10.4339 9.49735 11.7933 9.49735C13.1569 9.49735 14.2642 10.6244 14.2642 12.0122C14.2642 13.4 13.1664 14.527 11.7933 14.527Z" fill="white"/>
</g>
<defs>
<clipPath id="clip0_10779_4980">
<rect width="24" height="24" fill="white"/>
</clipPath>
</defs>
</svg>
