<svg width="38" height="24" viewBox="0 0 38 24" fill="none" xmlns="http://www.w3.org/2000/svg">
<g clip-path="url(#clip0_10600_4334)">
<path d="M7.25344 23.9813H22.7612C26.2455 23.9813 28.302 21.9635 28.302 18.4849V5.49639C28.302 2.01782 26.2455 0 22.7612 0H7.25344C3.89807 0 1.70544 2.01782 1.70544 5.49639V18.4849C1.70544 21.9635 3.75617 23.9813 7.25344 23.9813ZM7.62096 22.0313C5.14776 22.0313 3.77731 20.7596 3.77731 18.169V5.81232C3.77731 3.22171 5.14776 1.94997 7.62096 1.94997H22.3937C24.854 1.94997 26.2244 3.22171 26.2244 5.81232V18.169C26.2244 20.7596 24.854 22.0313 22.3937 22.0313H7.62096ZM27.9932 8.04586V10.4937L34.9764 4.77966C35.1496 4.63534 35.2926 4.54711 35.4499 4.54711C35.6547 4.54711 35.7675 4.71013 35.7675 4.98586V18.9955C35.7675 19.2711 35.6547 19.4342 35.4499 19.4342C35.2926 19.4342 35.1496 19.333 34.9764 19.2016L27.9932 13.4877V15.9354L33.9802 20.9504C34.5551 21.4263 35.1715 21.7396 35.771 21.7396C36.9747 21.7396 37.7749 20.8633 37.7749 19.5572V4.4241C37.7749 3.11796 36.9747 2.24177 35.771 2.24177C35.1715 2.24177 34.5551 2.55509 33.9802 3.03084L27.9932 8.04586Z" fill="white"/>
</g>
<defs>
<clipPath id="clip0_10600_4334">
<rect width="37.7343" height="24" fill="white" transform="translate(0.0405273)"/>
</clipPath>
</defs>
</svg>
