<svg width="38" height="24" viewBox="0 0 38 24" fill="none" xmlns="http://www.w3.org/2000/svg">
<g clip-path="url(#clip0_10779_4983)">
<path d="M7.21291 23.9813H22.7207C26.2049 23.9813 28.2615 21.9635 28.2615 18.4849V5.49639C28.2615 2.01782 26.2049 0 22.7207 0H7.21291C3.85754 0 1.66492 2.01782 1.66492 5.49639V18.4849C1.66492 21.9635 3.71564 23.9813 7.21291 23.9813ZM7.58043 22.0313C5.10723 22.0313 3.73678 20.7596 3.73678 18.169V5.81232C3.73678 3.22171 5.10723 1.94997 7.58043 1.94997H22.3531C24.8134 1.94997 26.1839 3.22171 26.1839 5.81232V18.169C26.1839 20.7596 24.8134 22.0313 22.3531 22.0313H7.58043ZM27.9527 8.04586V10.4937L34.9359 4.77966C35.1091 4.63534 35.252 4.54711 35.4093 4.54711C35.6142 4.54711 35.7269 4.71013 35.7269 4.98586V18.9955C35.7269 19.2711 35.6142 19.4342 35.4093 19.4342C35.252 19.4342 35.1091 19.333 34.9359 19.2016L27.9527 13.4877V15.9354L33.9397 20.9504C34.5146 21.4263 35.131 21.7396 35.7304 21.7396C36.9342 21.7396 37.7344 20.8633 37.7344 19.5572V4.4241C37.7344 3.11796 36.9342 2.24177 35.7304 2.24177C35.131 2.24177 34.5146 2.55509 33.9397 3.03084L27.9527 8.04586Z" fill="white"/>
<path d="M9.52843 17.5441C10.0366 18.0522 10.7721 18.0464 11.3062 17.5123L15.0156 13.8029L18.7461 17.5335C19.2697 18.057 20.0052 18.0629 20.5134 17.5547C21.0523 17.0158 21.0511 16.285 20.5229 15.7567L16.7923 12.0262L20.5228 8.29572C21.0464 7.77219 21.0522 7.03662 20.544 6.52843C20.0158 6.00016 19.2745 5.99062 18.7461 6.51899L15.0156 10.2495L11.2957 6.52953C10.7568 5.99068 10.026 5.98959 9.48718 6.52844C8.979 7.03662 8.98483 7.77215 9.51893 8.30626L13.2389 12.0262L9.52951 15.7356C8.99066 16.2744 9.00016 17.0158 9.52843 17.5441Z" fill="white"/>
</g>
<defs>
<clipPath id="clip0_10779_4983">
<rect width="37.7343" height="24" fill="white"/>
</clipPath>
</defs>
</svg>
