<svg width="27" height="24" viewBox="0 0 27 24" fill="none" xmlns="http://www.w3.org/2000/svg">
<path d="M25.907 23.0141V23.9354H17.2767V23.0141C17.2767 22.5859 17.6242 22.2465 18.0444 22.2465H18.1979V21.3253C18.1979 20.9535 18.4646 20.6384 18.812 20.5737V13.0101H18.7878C18.5131 9.98788 15.9757 7.6202 12.8807 7.6202C9.78579 7.6202 7.24841 9.98788 6.97366 13.0101H6.94942V20.5576H7.11104C7.53932 20.5576 7.87872 20.905 7.87872 21.3253V22.2465H8.03225C8.46053 22.2465 8.79993 22.5939 8.79993 23.0141V23.9354H0.177705V23.0141C0.177705 22.5859 0.52518 22.2465 0.945382 22.2465H1.09892V21.3253C1.09892 20.897 1.44639 20.5576 1.86659 20.5576V6.83636H1.02619L0.0241699 3.44242H4.49286V0.0484848H21.2848V3.44242H26.0605L25.0585 6.83636H24.21V20.5495C24.6383 20.5495 24.9777 20.897 24.9777 21.3172V22.2384H25.1312C25.5595 22.2465 25.907 22.5939 25.907 23.0141Z" fill="#FFF"/>
</svg>
